<svg width="635" height="631" viewBox="0 0 635 631" fill="none" xmlns="http://www.w3.org/2000/svg">
<path fill-rule="evenodd" clip-rule="evenodd" d="M324.164 10C324.164 4.47714 319.687 0 314.164 0C308.641 0 304.164 4.47714 304.164 10C304.164 28.5556 303.423 47.0666 302.672 65.8133L302.668 65.9023V65.9025V65.9028V65.9031C301.921 84.5548 301.164 103.441 301.164 122.444C301.164 126.387 301.123 130.381 301.082 134.418V134.419C300.925 149.907 300.761 166.032 302.857 182.331C303.482 187.193 304.475 192.051 305.382 196.482L305.382 196.484L305.387 196.508C305.558 197.344 305.726 198.165 305.888 198.968C306.948 204.231 307.798 208.959 308.07 213.587C308.311 217.688 308.263 221.64 308.211 225.964V225.964V225.965L308.211 225.971C308.188 227.892 308.164 229.887 308.164 232C308.164 232.066 308.165 232.132 308.166 232.197C288.654 233.52 270.948 241.427 257.254 253.715C254.905 251.288 252.603 248.822 250.352 246.313C243.809 239.021 237.051 231.907 230.408 224.914L230.407 224.913C229.63 224.095 228.854 223.279 228.081 222.464C220.653 214.638 213.391 206.928 206.486 198.998C188.858 178.752 170.11 164.611 147.285 151.899C143.799 149.957 140.468 148.209 137.289 146.541L137.288 146.541L137.286 146.54C127.178 141.237 118.603 136.739 111.426 129.35C108.626 126.468 106.429 123.32 103.744 119.473L103.744 119.473L103.744 119.472L103.743 119.471C102.791 118.107 101.777 116.655 100.654 115.095C96.7029 109.612 91.6443 103.274 84.1148 98.7559C79.379 95.9144 73.2364 97.45 70.3949 102.186C67.5535 106.922 69.0891 113.064 73.8249 115.906C77.7197 118.243 80.8288 121.793 84.4266 126.786C85.1293 127.762 85.8779 128.837 86.6717 129.978L86.6718 129.978L86.672 129.978C89.5566 134.123 93.0377 139.124 97.0803 143.286C106.717 153.205 119.088 159.656 129.693 165.186L129.694 165.186C132.461 166.629 135.107 168.009 137.554 169.371C158.736 181.169 175.555 193.93 191.403 212.132C198.619 220.42 206.148 228.408 213.575 236.233C214.346 237.044 215.115 237.854 215.882 238.662L215.898 238.679L215.899 238.679C222.569 245.701 229.125 252.603 235.465 259.669C238.249 262.773 241.097 265.804 243.998 268.771C234.539 282.474 229 299.09 229 317C229 317.387 229.003 317.773 229.008 318.159C228.142 318.227 227.408 318.3 227.036 318.336L227.035 318.336C226.898 318.35 226.81 318.358 226.783 318.36C210.961 319.423 195.094 322.366 180.038 325.158L180.037 325.158L180.022 325.161L179.976 325.169C176.988 325.723 174.032 326.271 171.114 326.797C169.196 327.143 167.275 327.489 165.352 327.835L165.254 327.853L165.227 327.858C151.137 330.394 136.941 332.949 122.773 335.741C108.35 338.582 95.553 339.34 80.3408 339.34C75.6817 339.34 70.6467 339.512 65.7569 339.678C63.0018 339.772 60.2928 339.865 57.7231 339.924C50.2572 340.096 43.248 340.024 36.7927 339.198C33.8106 338.817 30.6498 337.711 26.3366 336.062C26.0355 335.947 25.7272 335.829 25.4121 335.708C21.6151 334.249 16.8301 332.411 11.8172 331.485C6.38631 330.481 1.17013 334.07 0.166495 339.501C-0.837136 344.932 2.75188 350.148 8.18276 351.152C11.3155 351.73 14.4745 352.939 18.744 354.571L19.1954 354.744C23.3113 356.317 28.5767 358.31 34.2546 359.037C42.2302 360.057 50.4422 360.097 58.1835 359.919C61.2629 359.848 64.1843 359.747 67.0135 359.649C71.605 359.49 75.9537 359.34 80.3408 359.34C96.3083 359.34 110.502 358.542 126.639 355.363C140.634 352.607 154.657 350.082 168.761 347.543L168.762 347.543L168.762 347.543L168.763 347.543C170.729 347.189 172.695 346.835 174.664 346.48C177.807 345.913 180.923 345.336 184.016 344.764L184.018 344.763L184.019 344.763C199.062 341.979 213.572 339.293 228.124 338.315C228.605 338.283 229.086 338.238 229.479 338.201L229.826 338.168L229.827 338.168C229.971 338.154 230.108 338.141 230.243 338.128C230.37 338.116 230.496 338.104 230.626 338.093C231.008 338.059 231.334 338.035 231.619 338.02C235.236 352.237 242.436 365.023 252.201 375.361C251.867 375.638 251.601 375.878 251.408 376.055C250.138 377.213 249.053 378.463 248.332 379.341C247.95 379.804 247.625 380.22 247.377 380.544C247.225 380.741 246.847 381.242 246.935 381.127C241.917 387.713 237.324 394.502 232.873 401.083L232.873 401.083L232.872 401.084C231.968 402.421 231.07 403.749 230.175 405.064C218.387 422.4 206.085 439.306 192.566 454.846C186.371 461.968 179.236 467.973 171.414 474.136C169.801 475.407 168.143 476.695 166.457 478.006L166.457 478.007C160.174 482.892 153.495 488.085 147.243 493.816C133.419 506.488 122.19 519.656 112.425 535.931C109.584 540.667 111.119 546.81 115.855 549.651C120.591 552.493 126.733 550.957 129.575 546.221C138.217 531.818 148.151 520.115 160.757 508.559C166.351 503.431 172.189 498.89 178.373 494.079L178.374 494.078L178.375 494.078L178.375 494.077L178.376 494.077L178.376 494.077L178.38 494.073C180.155 492.693 181.958 491.29 183.792 489.845C191.826 483.515 200.18 476.567 207.656 467.973C221.912 451.585 234.716 433.954 246.714 416.31C247.666 414.91 248.603 413.526 249.53 412.156L249.532 412.152C253.977 405.582 258.198 399.344 262.843 393.248L262.943 393.117L263.011 393.028C263.847 392.942 264.687 392.749 265.511 392.44C267.176 391.815 268.577 390.794 269.646 389.524C281.107 396.549 294.362 400.933 308.563 401.829C308.653 402.65 308.735 403.337 308.794 403.822L308.794 403.823L308.794 403.825C308.812 403.977 308.828 404.11 308.841 404.22C308.849 404.29 308.856 404.351 308.862 404.402C309.685 411.822 310.766 419.352 311.818 426.687L311.819 426.688L311.819 426.691C312.318 430.164 312.81 433.593 313.265 436.946L313.278 437.039C317.223 466.078 321 493.988 321 522.4C321 538.047 319.852 553.301 318.657 569.17L318.657 569.171L318.657 569.174L318.656 569.178C318.448 571.939 318.239 574.718 318.034 577.521C316.99 591.809 316.908 607.668 319.03 622.424C319.817 627.891 324.886 631.685 330.352 630.898C335.819 630.112 339.613 625.043 338.827 619.576C336.978 606.727 337 592.413 337.981 578.979C338.179 576.266 338.384 573.547 338.59 570.82L338.591 570.805C339.786 554.96 341 538.863 341 522.4C341 492.523 337.041 463.384 333.139 434.665L333.139 434.665L333.096 434.346L333.083 434.254C332.583 430.574 332.067 426.977 331.556 423.424L331.556 423.423L331.556 423.423L331.556 423.422L331.556 423.422C330.529 416.275 329.528 409.304 328.74 402.198C328.71 401.928 328.673 401.61 328.63 401.252L328.63 401.251L328.63 401.246L328.572 400.756C344.035 398.084 358.068 391.235 369.465 381.412C376.442 389.361 383.36 397.409 390.299 405.482C392.91 408.52 395.524 411.561 398.146 414.602C412.903 431.721 428.849 447.663 444.578 463.247C454.096 472.677 466.174 483.272 479.251 489.997C487.1 494.034 494.781 502.291 500.374 510.99C501.074 512.08 501.748 513.196 502.51 514.457C502.641 514.674 502.774 514.895 502.91 515.12C503.804 516.599 504.813 518.25 505.919 519.89C508.126 523.165 511.001 526.83 515.024 529.847C519.443 533.161 525.711 532.266 529.024 527.847C532.338 523.429 531.443 517.161 527.024 513.847C525.534 512.729 524.12 511.11 522.502 508.71C521.695 507.513 520.907 506.23 520.024 504.771C519.924 504.604 519.821 504.435 519.717 504.263L519.655 504.16C518.901 502.911 518.063 501.522 517.197 500.175C510.623 489.949 500.602 478.488 488.398 472.211C478.08 466.906 467.741 458.042 458.654 449.039C442.898 433.429 427.475 417.993 413.294 401.543C410.711 398.548 408.123 395.536 405.526 392.514C398.119 383.896 390.645 375.2 383.053 366.576C391.792 354.425 397.403 339.874 398.708 324.101C415.237 324.378 431.807 325.178 448.56 325.988L448.691 325.995C469.277 326.991 490.139 328 511.061 328H558.159C560.277 328 562.353 327.992 564.406 327.984L564.411 327.984C568.435 327.969 572.374 327.954 576.374 327.999C580.336 328.044 584.292 328.661 589.101 329.419L589.208 329.436C593.756 330.153 599.131 331 604.756 331H625C630.523 331 635 326.523 635 321C635 315.477 630.523 311 625 311H604.756C600.893 311 596.987 310.415 592.214 309.663L591.75 309.59C587.312 308.889 582.076 308.063 576.602 308.001C572.457 307.953 568.246 307.969 564.127 307.985H564.126C562.109 307.992 560.114 308 558.159 308H511.061C490.659 308 470.236 307.014 449.526 306.012L449.42 306.007L449.42 306.007H449.419L449.418 306.006C432.44 305.185 415.269 304.354 398.026 304.088C395.595 288.141 388.734 273.651 378.737 261.914C379.115 261.7 379.541 261.457 379.978 261.199C386.24 257.506 392.592 253.924 399.036 250.299L400.299 249.589L400.3 249.589L400.301 249.588L400.301 249.588C406.309 246.21 412.398 242.786 418.436 239.263C420.689 237.949 422.981 236.628 425.3 235.292C447.359 222.58 471.84 208.472 488.244 185.188C490.428 182.088 492.719 178.925 495.059 175.694C504.108 163.2 513.875 149.714 520.92 135.105C525.223 126.181 535.336 120.112 546.946 117.809C552.363 116.734 555.883 111.472 554.809 106.054C553.734 100.637 548.472 97.1165 543.054 98.1911C528.02 101.173 510.957 109.72 502.905 126.417C496.711 139.263 488.319 150.866 479.417 163.176L479.416 163.176C476.936 166.605 474.417 170.089 471.894 173.669C458.174 193.144 437.611 205.046 414.928 218.175L414.912 218.185L414.908 218.187L414.892 218.196C412.732 219.446 410.552 220.708 408.358 221.988C402.462 225.428 396.504 228.778 390.465 232.174L389.232 232.867C382.798 236.486 376.28 240.161 369.819 243.971C369.646 244.073 369.39 244.218 369.078 244.394L369.077 244.395C367.952 245.031 366.09 246.083 364.665 247.086C364.302 247.342 363.925 247.62 363.542 247.922C353.217 240.505 341.161 235.344 328.097 233.164C328.141 232.782 328.164 232.394 328.164 232C328.164 230.411 328.184 228.717 328.205 226.958C328.26 222.337 328.321 217.258 328.036 212.413C327.675 206.278 326.572 200.37 325.494 195.019C325.308 194.094 325.123 193.189 324.942 192.301L324.939 192.288L324.939 192.287C324.035 187.856 323.216 183.844 322.693 179.78C320.791 164.988 320.932 150.64 321.081 135.342L321.081 135.333C321.122 131.119 321.164 126.832 321.164 122.444C321.164 103.877 321.905 85.3607 322.656 66.6142L322.66 66.5082V66.5073V66.5065C323.407 47.8608 324.164 28.9861 324.164 10Z" fill="url(#paint0_radial_1134_49)"/>
<defs>
<radialGradient id="paint0_radial_1134_49" cx="0" cy="0" r="1" gradientUnits="userSpaceOnUse" gradientTransform="translate(317.499 315.501) rotate(90) scale(315.501 317.501)">
<stop stop-color="#FF0000"/>
<stop offset="1" stop-color="#DAA419" stop-opacity="0.75"/>
</radialGradient>
</defs>
</svg>
